<svg width="52" height="53" viewBox="0 0 52 53" fill="none" xmlns="http://www.w3.org/2000/svg">
<g clip-path="url(#clip0_12_40)">
<path d="M46.3935 0H5.60647C2.52291 0 0 2.53723 0 5.6383V37.0718C0 40.1729 2.52291 42.7101 5.60647 42.7101H16.1186V52.859L29.9946 42.7101H46.3935C49.4771 42.7101 52 40.1729 52 37.0718V5.6383C52 2.53723 49.4771 0 46.3935 0ZM12.3342 24.6676C10.6523 24.6676 9.25067 23.258 9.25067 21.5665C9.25067 19.875 10.6523 18.4654 12.3342 18.4654C14.0162 18.4654 15.4178 19.875 15.4178 21.5665C15.4178 23.258 14.0162 24.6676 12.3342 24.6676ZM26.0701 24.6676C24.3881 24.6676 22.9865 23.258 22.9865 21.5665C22.9865 19.875 24.3881 18.4654 26.0701 18.4654C27.752 18.4654 29.1536 19.875 29.1536 21.5665C29.0135 23.258 27.752 24.6676 26.0701 24.6676ZM39.6658 24.6676C37.9838 24.6676 36.5822 23.258 36.5822 21.5665C36.5822 19.875 37.9838 18.4654 39.6658 18.4654C41.3477 18.4654 42.7493 19.875 42.7493 21.5665C42.6092 23.258 41.3477 24.6676 39.6658 24.6676Z" fill="#5AA6B1"/>
</g>
<defs>
<clipPath id="clip0_12_40">
<rect width="52" height="53" fill="white"/>
</clipPath>
</defs>
</svg>
