<svg width="41" height="58" viewBox="0 0 41 58" fill="none" xmlns="http://www.w3.org/2000/svg">
<g clip-path="url(#clip0_12_9)">
<path d="M16.1017 21.1317L20.4254 10.7906L10.7344 4.19629C10.7344 4.19629 -13.2692 30.2738 10.7344 57.9999L20.4254 52.1549L16.1017 40.7648L8.49808 41.3643C8.49808 41.3643 4.47263 30.2738 8.64717 20.6821L16.1017 21.1317Z" fill="#5AA6B1"/>
<path d="M37.2725 29.3747L34.738 27.876C36.9743 24.1292 38.018 19.9328 38.018 15.5866C38.018 10.6408 36.5271 5.84496 33.6943 1.79845L36.2289 0C39.3598 4.49612 40.9998 9.89147 40.9998 15.4367C40.9998 20.3824 39.658 25.1783 37.2725 29.3747Z" fill="#5AA6B1"/>
<path d="M31.9053 24.7287L29.2217 23.3799C30.4144 20.982 31.1599 18.2843 31.1599 15.4368C31.1599 12.2895 30.2653 9.14218 28.7744 6.44451L31.309 4.9458C33.2471 8.09309 34.1417 11.69 34.1417 15.4368C34.1417 18.7339 33.3962 21.8812 31.9053 24.7287Z" fill="#5AA6B1"/>
<path d="M26.538 20.0827L23.7052 19.0336C24.1525 17.9845 24.3016 16.7855 24.3016 15.5865C24.3016 14.2377 24.0034 12.8889 23.5562 11.54L26.2398 10.3411C26.9852 11.9896 27.2834 13.7881 27.2834 15.4367C27.2834 17.0853 27.1343 18.584 26.538 20.0827Z" fill="#5AA6B1"/>
</g>
<defs>
<clipPath id="clip0_12_9">
<rect width="41" height="58" fill="white"/>
</clipPath>
</defs>
</svg>
