<svg width="52" height="48" viewBox="0 0 52 48" fill="none" xmlns="http://www.w3.org/2000/svg">
<g clip-path="url(#clip0_14_20)">
<path d="M22.6992 22.0819L21.7044 27.3217L20.981 31.2515C20.981 31.4386 20.981 31.7193 21.1618 31.9065C21.3427 32.0936 21.5236 32.1872 21.7949 32.0936L25.5931 31.3451L30.7479 30.3158L26.7688 26.1989L22.6992 22.0819Z" fill="white"/>
<path d="M43.6802 0.187134L38.5254 5.52047L46.6645 13.9415L51.8193 8.60819C51.9097 8.51462 52.0002 8.32749 52.0002 8.14035V8.04678C52.0002 7.95322 51.9097 7.76608 51.8193 7.67251L44.675 0.280702C44.4941 0.0935673 44.3132 0 44.1323 0C43.9515 0 43.7706 0.0935672 43.6802 0.187134Z" fill="white"/>
<path d="M37.9108 6.07548L23.2031 21.2926L25.5052 23.6744L40.2129 8.45729L37.9108 6.07548Z" fill="white"/>
<path d="M43.7506 12.1598L29.043 27.377L31.345 29.7588L46.0527 14.5416L43.7506 12.1598Z" fill="white"/>
<path d="M47.84 44.3508C46.393 42.6666 45.0365 41.1695 43.68 39.6725V39.5789C43.68 38.8304 43.68 38.0818 43.68 37.4268C43.68 37.1461 43.68 36.8654 43.68 36.5847V31.4385C43.68 27.5087 43.68 23.5789 43.68 19.5555L39.7009 23.6725C39.7009 27.1345 39.7009 30.5029 39.7009 33.9649V38.3625H8.77218C8.77218 31.4385 8.77218 24.5146 8.77218 17.5906C8.77218 17.497 8.77218 17.497 8.77218 17.4035C8.77218 17.4035 8.86261 17.4035 8.95305 17.4035C14.1983 17.4035 19.4435 17.4035 24.6887 17.4035L28.6678 13.2865C22.3374 13.2865 15.8261 13.2865 8.86261 13.2865C8.59131 13.2865 8.32 13.2865 7.95826 13.3801C6.05913 13.7543 4.79305 15.4385 4.79305 17.5906C4.79305 21.3333 4.79305 24.9824 4.79305 28.7251C4.79305 31.7192 4.79305 34.807 4.79305 37.8011C4.79305 38.0818 4.79305 38.269 4.79305 38.5497C4.79305 39.0175 4.88348 39.3918 4.79305 39.6725C4.70261 39.9532 4.43131 40.2339 4.06957 40.5146C3.8887 40.7017 3.70783 40.8888 3.52696 41.076C2.71305 42.1052 1.8087 43.0409 0.994787 43.9766L0.542613 44.538C4.31621e-06 45.1929 -0.180865 45.9415 0.180874 46.69C0.452178 47.4385 1.08522 47.9064 1.89913 47.9999C1.98957 47.9999 2.17044 47.9999 2.26087 47.9999C2.35131 47.9999 2.35131 47.9999 2.44174 47.9999H2.53218C8.59131 47.9999 14.56 47.9999 20.6191 47.9999H28.487C34.3652 47.9999 40.2435 47.9999 46.2122 47.9999C46.5739 47.9999 47.84 47.9999 48.3826 46.69C48.8348 45.5672 48.1113 44.6315 47.84 44.3508ZM29.3913 43.9766C29.2104 43.4152 29.0296 42.8537 28.8487 42.3859C25.7739 42.3859 22.6991 42.3859 19.6244 42.3859C19.4435 42.9473 19.2626 43.5087 19.0817 43.9766C14.2887 43.9766 9.49566 43.9766 4.70261 43.9766C4.79305 43.7894 4.88348 43.6959 4.97392 43.6023C5.78783 42.6666 6.51131 41.7309 7.32522 40.8888C7.50609 40.7017 7.68696 40.6081 7.95826 40.6081C18.72 40.6081 29.4817 40.6081 40.2435 40.6081C40.5148 40.6081 40.7861 40.7017 40.967 40.8888C41.8713 41.9181 42.7757 42.9473 43.7704 43.9766C38.9774 43.9766 34.1843 43.9766 29.3913 43.9766Z" fill="white"/>
</g>
<defs>
<clipPath id="clip0_14_20">
<rect width="52" height="48" fill="white"/>
</clipPath>
</defs>
</svg>
