<svg width="42" height="58" viewBox="0 0 42 58" fill="none" xmlns="http://www.w3.org/2000/svg">
<g clip-path="url(#clip0_14_36)">
<path fill-rule="evenodd" clip-rule="evenodd" d="M3.81829 10.949C4.34236 10.0612 4.34236 9.0255 4.49209 7.98978C4.56696 7.17601 5.16589 6.28825 5.76482 5.69642C6.36375 5.10458 7.26214 4.51274 8.08567 4.43876C9.1338 4.2908 10.1819 4.36478 11.0803 3.77295C11.9787 3.25509 12.5028 2.36733 13.1766 1.47958C13.7006 0.813763 14.599 0.369886 15.4226 0.147947C16.2461 -0.0739919 17.2942 -0.0739919 18.0429 0.221927C19.091 0.591824 19.9145 1.18366 20.9627 1.18366C22.0108 1.18366 22.9092 0.665804 23.8825 0.221927C24.6311 -0.0739919 25.6793 -0.0739919 26.5028 0.147947C27.3263 0.369886 28.2996 0.887743 28.7488 1.47958C29.4226 2.36733 29.9466 3.25509 30.845 3.77295C31.7434 4.2908 32.7916 4.2908 33.9146 4.43876C34.6632 4.51274 35.6365 5.10458 36.2354 5.69642C36.8343 6.28825 37.3584 7.17601 37.5081 7.98978C37.6579 9.0255 37.6579 10.0612 38.1819 10.949C38.706 11.8367 39.6044 12.3546 40.5028 13.0204C41.1017 13.5383 41.6258 14.426 41.8504 15.2398C42.075 16.0536 42.075 17.0893 41.7755 17.8291C41.4012 18.8648 40.8022 19.6786 40.8022 20.7143C40.8022 21.75 41.3263 22.6377 41.7755 23.5995C42.075 24.3393 42.075 25.375 41.8504 26.1888C41.6258 27.0025 41.1017 27.9643 40.5028 28.4082C39.6044 29.074 38.706 29.5918 38.1819 30.4796C37.6579 31.3673 37.6579 32.403 37.5081 33.5127C37.4333 34.2525 36.8343 35.2143 36.2354 35.8061C35.6365 36.3979 34.7381 36.9158 33.9146 37.0638C32.7916 37.2117 31.8183 37.1377 30.845 37.7296C29.9466 38.2474 29.4226 39.1352 28.7488 40.0229C28.2247 40.6888 27.3263 41.1326 26.5028 41.3546C25.6793 41.5765 24.6311 41.5765 23.8825 41.2806C22.8343 40.9107 22.0108 40.3189 20.9627 40.3189C19.9145 40.3189 19.0162 40.8367 18.0429 41.2806C17.2942 41.5765 16.2461 41.5765 15.4226 41.3546C14.599 41.1326 13.6258 40.6148 13.1766 40.0229C12.5028 39.1352 11.9787 38.2474 11.0803 37.7296C10.1819 37.2117 9.1338 37.2117 8.08567 37.0638C7.26214 36.9898 6.36375 36.3979 5.76482 35.8061C5.16589 35.2143 4.56696 34.3265 4.49209 33.5127C4.34236 32.403 4.41722 31.4413 3.81829 30.4796C3.29423 29.5918 2.39583 29.074 1.49744 28.4082C0.82364 27.8903 0.374442 27.0025 0.149843 26.1888C-0.0747558 25.449 -0.0747558 24.4133 0.224709 23.6735C0.599041 22.6377 1.19797 21.824 1.19797 20.7883C1.19797 19.7525 0.673907 18.8648 0.224709 17.903C-0.0747558 17.1633 -0.0747558 16.1275 0.149843 15.3138C0.374442 14.5 0.898506 13.5383 1.49744 13.0944C2.39583 12.3546 3.29423 11.8367 3.81829 10.949ZM22.0857 49.5663L24.5563 57.1122C25.0055 58.4439 25.6044 58.2219 26.1285 57.2602L29.2728 51.3418C29.4974 50.9719 29.7969 50.8979 30.1712 51.0459L36.2354 54.0051C37.2835 54.5229 37.8825 54.301 37.4333 52.9694L32.9413 39.2831C32.4921 39.3571 32.1178 39.4311 31.8932 39.5051C31.444 39.801 30.7702 40.8367 30.3958 41.2806C29.6472 42.3163 28.2247 43.0561 27.0268 43.352C26.1285 43.574 25.0055 43.6479 24.0322 43.5L22.0857 49.5663ZM17.968 55.4107L22.1605 42.7602C21.7113 42.6122 21.337 42.3903 21.0375 42.3903C20.5135 42.3903 19.3905 42.9821 18.8664 43.2041C17.6686 43.7219 16.0964 43.7219 14.8985 43.352C13.7006 42.9821 12.2782 42.2423 11.5295 41.2806C11.1552 40.8367 10.5563 39.801 10.0322 39.5051C9.8076 39.3571 9.43327 39.2831 8.98407 39.2831L5.01615 51.2678C4.56696 52.5255 5.24075 52.8214 6.21401 52.3036L12.2782 49.3444C12.6525 49.1224 12.952 49.2704 13.1766 49.6403L16.321 55.6326C16.9199 56.5204 17.5188 56.6684 17.968 55.4107ZM26.5028 14.0561L18.6418 21.824L15.4974 18.7168C14.4493 17.6811 12.7274 17.6811 11.6793 18.7168C10.6311 19.7525 10.6311 21.4541 11.6793 22.4898L16.6953 27.4464C17.5937 28.3342 19.6151 28.3342 20.5135 27.4464L30.2461 17.8291C31.2942 16.7934 31.2942 15.0918 30.2461 14.0561C29.2728 13.0204 27.5509 13.0204 26.5028 14.0561ZM20.9627 5.84438C29.2728 5.84438 36.0108 12.5025 36.0108 20.7143C36.0108 28.926 29.2728 35.5842 20.9627 35.5842C12.6525 35.5842 5.91455 28.926 5.91455 20.7143C5.91455 12.5025 12.6525 5.84438 20.9627 5.84438Z" fill="white"/>
</g>
<defs>
<clipPath id="clip0_14_36">
<rect width="42" height="58" fill="white"/>
</clipPath>
</defs>
</svg>
