<svg width="68" height="51" viewBox="0 0 68 51" fill="none" xmlns="http://www.w3.org/2000/svg">
<g clip-path="url(#clip0_14_30)">
<path d="M18.547 21.4776C17.9705 21.4776 17.5051 21.9498 17.5051 22.5286V24.4304C17.5051 25.0119 17.9732 25.4814 18.547 25.4814H19.8242C19.9564 26.2896 20.1705 27.0844 20.4667 27.8526L19.3508 28.5035C18.8511 28.7942 18.6818 29.4371 18.9701 29.9412L19.9114 31.587C20.1996 32.0911 20.8369 32.2618 21.3367 31.9711L22.4896 31.2989C22.7117 31.563 22.9444 31.819 23.1903 32.0671C23.5155 32.3952 23.8567 32.7019 24.2136 32.99L23.5314 34.1823C23.2432 34.6864 23.4151 35.3293 23.9122 35.62L25.5437 36.5696C26.0435 36.8603 26.6807 36.687 26.969 36.1855L27.6856 34.9318C28.426 35.1959 29.1875 35.3853 29.9623 35.5V36.9964C29.9623 37.5779 30.4303 38.0473 31.0041 38.0473H32.8895C33.4659 38.0473 33.9313 37.5752 33.9313 36.9964V35.42C34.6796 35.2786 35.4095 35.0652 36.1234 34.7825L36.9273 36.1882C37.2155 36.6923 37.8528 36.863 38.3525 36.5723L39.984 35.6227C40.4838 35.3319 40.653 34.6891 40.3648 34.185L39.5239 32.7153C39.7619 32.5099 39.992 32.2938 40.2167 32.0697C40.5208 31.763 40.8064 31.4429 41.0735 31.1095L42.5569 31.9737C43.0567 32.2645 43.694 32.0911 43.9822 31.5896L44.9235 29.9439C45.2118 29.4397 45.0399 28.7969 44.5428 28.5061L43.025 27.6233C43.2762 26.9271 43.4613 26.2122 43.5803 25.4867H45.344C45.9204 25.4867 46.3858 25.0146 46.3858 24.4358V22.5339C46.3858 21.9524 45.9178 21.483 45.344 21.483H43.5776C43.4586 20.7548 43.2735 20.0399 43.0223 19.3464L44.5401 18.4635C45.0399 18.1728 45.2091 17.5299 44.9209 17.0258L43.9795 15.3801C43.6913 14.8759 43.054 14.7052 42.5543 14.996L41.0708 15.8602C40.8038 15.5268 40.5182 15.2067 40.2141 14.8999C39.992 14.6759 39.7593 14.4598 39.5213 14.2544L40.3622 12.7847C40.6504 12.2806 40.4785 11.6377 39.9814 11.347L38.3499 10.3974C37.8501 10.1067 37.2129 10.2801 36.9246 10.7815L36.1208 12.1872C35.4095 11.9045 34.677 11.6911 33.9287 11.5497V9.9733C33.9287 9.39182 33.4606 8.92236 32.8868 8.92236H31.0015C30.425 8.92236 29.9596 9.39449 29.9596 9.9733V11.4697C29.1822 11.5817 28.4233 11.7738 27.6829 12.0378L26.9663 10.7842C26.6781 10.2801 26.0408 10.1093 25.5411 10.4001L23.9095 11.3497C23.4098 11.6404 23.2405 12.2832 23.5288 12.7874L24.211 13.9797C23.854 14.2651 23.5129 14.5745 23.1877 14.9026C22.9417 15.1507 22.709 15.4067 22.4869 15.6708L21.334 14.9986C20.8343 14.7079 20.197 14.8813 19.9088 15.3827L18.9674 17.0285C18.6792 17.5326 18.8511 18.1754 19.3482 18.4662L20.4641 19.117C20.1679 19.8852 19.9537 20.6801 19.8215 21.4883H18.547V21.4776ZM31.6996 16.9511C35.2667 16.9511 38.1701 19.8799 38.1701 23.4782C38.1701 27.0764 35.2667 30.0052 31.6996 30.0052C28.1324 30.0052 25.229 27.0764 25.229 23.4782C25.229 19.8799 28.1324 16.9511 31.6996 16.9511Z" fill="white"/>
<path d="M53.0784 32.6219C54.2921 29.7251 54.9056 26.6496 54.9056 23.4781C54.9056 20.3066 54.2895 17.2312 53.0784 14.3344C51.907 11.539 50.2305 9.02636 48.0939 6.87113C45.9574 4.71857 43.4691 3.02479 40.6953 1.84315C37.8263 0.621496 34.7748 0 31.6307 0C28.4867 0 25.4379 0.621496 22.5662 1.84315C19.795 3.02479 17.3041 4.7159 15.1675 6.87113C13.031 9.02636 11.3545 11.539 10.1831 14.3344C9.43475 16.1215 8.91383 17.9754 8.6256 19.8799L7.15803 18.3995C6.60009 17.8367 5.69575 17.8367 5.13781 18.3995C4.57987 18.9623 4.57987 19.8745 5.13781 20.4373L10.154 25.4973L15.1702 20.4373C15.7281 19.8745 15.7281 18.9623 15.1702 18.3995C14.6122 17.8367 13.7079 17.8367 13.1499 18.3995L11.4893 20.0746C13.1023 10.3307 21.5191 2.87809 31.6307 2.87809C42.89 2.87809 52.0498 12.1178 52.0498 23.4755C52.0498 34.8331 42.89 44.0729 31.6307 44.0729H1.4279C0.639913 44.0729 0 44.7184 0 45.5132C0 46.3081 0.639913 46.9536 1.4279 46.9536H31.6307C34.7748 46.9536 37.8236 46.3321 40.6953 45.1105C41.3907 44.8144 42.0703 44.4836 42.7287 44.1235C44.6961 43.0486 46.4915 41.6936 48.0913 40.0798C50.2305 37.9299 51.907 35.4199 53.0784 32.6219Z" fill="white"/>
<path d="M62.9838 40.4586C62.4259 39.8958 61.5216 39.8958 60.9636 40.4586C60.4057 41.0214 60.4057 41.9337 60.9636 42.4965L62.5317 44.0782H47.7211C46.9331 44.0782 46.2932 44.7237 46.2932 45.5186C46.2932 46.3135 46.9331 46.959 47.7211 46.959H62.5317L60.9636 48.5407C60.4057 49.1035 60.4057 50.0158 60.9636 50.5786C61.5216 51.1414 62.4259 51.1414 62.9838 50.5786L68 45.5186L62.9838 40.4586Z" fill="white"/>
<path d="M11.9758 29.0663C11.8013 28.4448 11.2407 28.0154 10.6008 28.0154H10.5929C9.64622 28.0154 8.96135 28.9276 9.21785 29.8479C9.47963 30.7894 9.80223 31.715 10.183 32.6246C11.3544 35.42 13.0309 37.9326 15.1675 40.0879C15.6884 40.6133 16.2304 41.1121 16.7937 41.5816C17.3595 42.0537 18.1898 42.011 18.7108 41.4856L18.7213 41.4749C19.3163 40.8747 19.2714 39.8878 18.6235 39.349C15.4742 36.7137 13.1155 33.1447 11.9758 29.0663Z" fill="white"/>
</g>
<defs>
<clipPath id="clip0_14_30">
<rect width="68" height="51" fill="white"/>
</clipPath>
</defs>
</svg>
